# xmcd CD database file
#
# Track frame offsets:
#	150
#	18927
#	35427
#	48167
#	67242
#	80707
#	98730
#	116870
#	130757
#	154437
#	166667
#
# Disc length: 2424 seconds
#
# Revision: 0
# Processed by: cddbd v1.5PL3 Copyright (c) Steve Scherf et al.
# Submitted via: CDex 1.50beta10
#
DISCID=8e09760b
DTITLE=Charles Caldwell - Remember Me
DYEAR=2004
DGENRE=Blues
TTITLE0=Hadn't I Been Good To You
TTITLE1=Old Buck
TTITLE2=I Know I Done You Wrong
TTITLE3=I Got Something To Tell You
TTITLE4=I'll Do Anything You Say
TTITLE5=Alone For A Long Time
TTITLE6=Movin' Out Movin' In
TTITLE7=Down The Road Of Love
TTITLE8=Same Man
TTITLE9=Goin' Through The Woods
TTITLE10=Remember Me
EXTD=YEAR: 2004
EXTT0=
EXTT1=
EXTT2=
EXTT3=
EXTT4=
EXTT5=
EXTT6=
EXTT7=
EXTT8=
EXTT9=
EXTT10=
PLAYORDER=
